<svg width="18" height="18" viewBox="0 0 18 18" fill="none" xmlns="http://www.w3.org/2000/svg">
<path fill-rule="evenodd" clip-rule="evenodd" d="M8.24947 1.5H9.74947V3.75H8.24947V1.5ZM2.99947 10.5V15H2.24947V16.5H15.7495V15H14.9995V10.5C14.9995 7.18629 12.3132 4.5 8.99947 4.5C5.68576 4.5 2.99947 7.18629 2.99947 10.5ZM13.4995 10.5V15H4.49947V10.5C4.49947 8.01472 6.51419 6 8.99947 6C11.4848 6 13.4995 8.01472 13.4995 10.5ZM15.8935 4.6665L14.833 3.606L13.2422 5.19675L14.3035 6.25725L15.8935 4.6665ZM2.10547 4.6665L3.16597 3.606L4.75672 5.196L3.69697 6.258L2.10547 4.6665ZM8.99947 6.75C6.9284 6.75 5.24947 8.42893 5.24947 10.5H6.74947C6.74947 9.25736 7.75683 8.25 8.99947 8.25V6.75Z" fill="#FFB436"/>
</svg>
